HIERARCHY
ROOT Hips
{
	OFFSET 0.000000 0.000000 0.000000 
	CHANNELS 6 Xposition Yposition Zposition Yrotation Zrotation Xrotation 
	JOINT Lumbar
	{
		OFFSET 0.000000 0.000000 0.000000 
		CHANNELS 3 Zrotation Xrotation Yrotation
		JOINT Neck
		{
			OFFSET 0.000000 0.445665 0.000000 
			CHANNELS 3 Zrotation Xrotation Yrotation
			End Site
			{
				OFFSET 0.000000 0.227535 0.000000 
			}
		}
		JOINT RightShoulder
		{
			OFFSET 0.019635 0.377685 0.194865 
			CHANNELS 3 Zrotation Xrotation Yrotation
			JOINT RightElbow
			{
				OFFSET 0.000000 -0.243375 0.000000 
				CHANNELS 2 Zrotation Yrotation
				JOINT RightWrist
				{
					OFFSET 0.000000 -0.264825 0.000000 
					CHANNELS 2 Zrotation Xrotation
					End Site
					{
						OFFSET 0.006600 -0.176220 0.000990 
					}
				}
			}
		}
		JOINT LeftShoulder
		{
			OFFSET 0.019635 0.377685 -0.194865 
			CHANNELS 3 Zrotation Xrotation Yrotation
			JOINT LeftElbow
			{
				OFFSET 0.000000 -0.243375 0.000000 
				CHANNELS 2 Zrotation Yrotation
				JOINT LeftWrist
				{
					OFFSET 0.000000 -0.264825 0.000000 
					CHANNELS 2 Zrotation Xrotation
					End Site
					{
						OFFSET 0.006600 -0.176220 -0.000990 
					}
				}
			}
		}
	}
	JOINT RightHip
	{
		OFFSET 0.052140 -0.069960 0.075570 
		CHANNELS 3 Zrotation Xrotation Yrotation
		JOINT RightKnee
		{
			OFFSET 0.000000 -0.402270 0.000000 
			CHANNELS 1 Zrotation
			JOINT RightAnkle
			{
				OFFSET 0.000000 -0.404085 0.000000 
				CHANNELS 3 Zrotation Xrotation Yrotation
				End Site
				{
					OFFSET 0.204105 -0.089430 0.008415 
				}
			}
		}
	}
	JOINT LeftHip
	{
		OFFSET 0.052140 -0.069960 -0.075570 
		CHANNELS 3 Zrotation Xrotation Yrotation
		JOINT LeftKnee
		{
			OFFSET 0.000000 -0.402270 0.000000 
			CHANNELS 1 Zrotation
			JOINT LeftAnkle
			{
				OFFSET 0.000000 -0.404085 0.000000 
				CHANNELS 3 Zrotation Xrotation Yrotation
				End Site
				{
					OFFSET 0.204105 -0.089430 -0.008415 
				}
			}
		}
	}
}
MOTION
Frames: 25
Frame Time: 0.02
4e-05 4e-05 -0.00017 22.10716 -29.02145 -6.83406 47.83868 3.08689 -1.84683 -10.90432 -2.07245 -0.45689 69.18333 -101.89777 64.17286 6.43175 92.85427 11.07975 -0.98134 43.52629 101.75718 -64.17112 7.63428 -90.79168 8.93136 1.16925 44.8335 -5.53952 -3.41073 -22.01428 -7.10716 -3.55202 -2.50792 48.87012 8.77548 1.35011 -27.14833 -7.06286 3.13728 2.21672
0.0001 4e-05 -0.00014 22.12836 -29.02191 -6.84166 47.82789 3.07857 -1.8471 -10.90184 -2.07624 -0.45705 69.42588 -101.86939 64.17253 6.3985 92.86548 11.06366 -0.96347 43.652 101.74269 -64.17112 7.62894 -90.81359 8.94232 1.14726 44.82507 -5.52724 -3.3878 -22.01657 -7.1069 -3.55368 -2.51016 48.87256 8.7826 1.34963 -27.15143 -7.06091 3.12408 2.2139
0.00016 3e-05 -0.00011 22.1495 -29.0224 -6.84924 47.81716 3.07028 -1.84734 -10.89938 -2.08004 -0.45722 69.66763 -101.84112 64.17219 6.36536 92.87669 11.04762 -0.94567 43.77744 101.7282 -64.17112 7.62359 -90.83543 8.95324 1.12533 44.81669 -5.51498 -3.36492 -22.01886 -7.10663 -3.55535 -2.5124 48.87503 8.78971 1.34919 -27.15452 -7.05896 3.1109 2.21108
0.00022 3e-05 -9e-05 22.17063 -29.02287 -6.85682 47.8064 3.06199 -1.84761 -10.89691 -2.08383 -0.45738 69.90943 -101.81282 64.17186 6.33222 92.88787 11.03158 -0.92786 43.90277 101.71375 -64.17112 7.61826 -90.85727 8.96415 1.10341 44.80829 -5.50273 -3.34205 -22.02114 -7.10637 -3.55701 -2.51463 48.87747 8.79681 1.34872 -27.15762 -7.05702 3.09773 2.20827
0.00028 2e-05 -6e-05 22.1918 -29.02329 -6.86441 47.79559 3.05369 -1.84791 -10.89441 -2.08761 -0.45754 70.15203 -101.78441 64.17152 6.29895 92.89904 11.01549 -0.90999 44.02835 101.69931 -64.17112 7.61293 -90.87916 8.97511 1.08144 44.79984 -5.49045 -3.31915 -22.02344 -7.1061 -3.55867 -2.51687 48.87988 8.80392 1.34818 -27.16072 -7.05507 3.08456 2.20546
0.00033 2e-05 -3e-05 22.2129 -29.0239 -6.87197 47.78502 3.04541 -1.848 -10.89204 -2.09145 -0.45771 70.39196 -101.75644 64.17119 6.26608 92.91033 10.99958 -0.89233 44.15352 101.68475 -64.17112 7.60753 -90.9009 8.98597 1.05958 44.79159 -5.47824 -3.29632 -22.02569 -7.10584 -3.56035 -2.51911 48.88246 8.81105 1.34795 -27.16379 -7.05312 3.07135 2.20263
0.00039 1e-05 -0 22.23411 -29.02415 -6.87959 47.77398 3.03709 -1.84853 -10.8894 -2.09516 -0.45787 70.63704 -101.72761 64.17085 6.23246 92.92137 10.98331 -0.87425 44.2793 101.67044 -64.17112 7.60229 -90.92293 8.99698 1.03752 44.78296 -5.46592 -3.27335 -22.02804 -7.10557 -3.56198 -2.52134 48.88469 8.81811 1.34711 -27.16693 -7.05117 3.05824 2.19984
0.00045 1e-05 2e-05 22.25522 -29.02472 -6.88715 47.76335 3.02881 -1.84866 -10.88703 -2.09899 -0.45803 70.87731 -101.69956 64.17052 6.19953 92.93262 10.96737 -0.85657 44.40466 101.65589 -64.17112 7.5969 -90.94469 9.00789 1.01564 44.77467 -5.45369 -3.25053 -22.0303 -7.10531 -3.56366 -2.52358 48.88724 8.82524 1.3468 -27.17 -7.04922 3.04504 2.19701
0.00051 0 5e-05 22.2762 -29.02573 -6.89464 47.7533 3.02059 -1.84828 -10.88494 -2.10297 -0.4582 71.11201 -101.67252 64.1702 6.16743 92.94421 10.95184 -0.83935 44.52901 101.64106 -64.17111 7.59135 -90.96611 9.01854 0.99402 44.76684 -5.44157 -3.22781 -22.03243 -7.10506 -3.5654 -2.52583 48.89022 8.83248 1.3473 -27.17298 -7.04728 3.03169 2.19413
0.00056 -0 8e-05 22.29793 -29.02437 -6.90253 47.74016 3.01204 -1.85075 -10.88108 -2.10611 -0.45834 71.37971 -101.63985 64.16981 6.13051 92.95409 10.93398 -0.81939 44.65766 101.62787 -64.17116 7.58676 -90.98948 9.0303 0.97101 44.75649 -5.42883 -3.20426 -22.03523 -7.10473 -3.5668 -2.52804 48.89086 8.83917 1.34364 -27.17647 -7.04532 3.01908 2.19153
0.00062 -1e-05 0.00011 22.31807 -29.02788 -6.90958 47.7334 3.00419 -1.84724 -10.88103 -2.111 -0.45854 71.57718 -101.61893 64.16957 6.10379 92.96744 10.92101 -0.80529 44.77821 101.61121 -64.17108 7.58013 -91.00873 9.03995 0.95087 44.75135 -5.41742 -3.18264 -22.03667 -7.10457 -3.5689 -2.53032 48.89632 8.84695 1.34842 -27.17891 -7.0434 3.005 2.18835
0.00067 0 0.00012 22.33385 -29.04588 -6.91432 47.74543 2.99818 -1.82697 -10.89083 -2.12076 -0.45886 71.58524 -101.63166 64.16974 6.10505 92.99148 10.92164 -0.80666 44.86841 101.58517 -64.17058 7.56793 -91.01673 9.04173 0.93919 44.76158 -5.40949 -3.16499 -22.03407 -7.10487 -3.57302 -2.53292 48.9162 8.8582 1.37902 -27.17828 -7.04153 2.98603 2.18333
0.00072 1e-05 0.00013 22.34804 -29.06857 -6.91822 47.76363 2.99288 -1.80075 -10.90456 -2.13223 -0.45924 71.52238 -101.65593 64.17006 6.11656 93.01878 10.9271 -0.814 44.95201 101.55559 -64.16997 7.55369 -91.02063 9.04173 0.93026 44.77684 -5.40294 -3.14956 -22.03017 -7.10532 -3.57781 -2.53558 48.94073 8.8704 1.41741 -27.17663 -7.03971 2.96578 2.17777
0.00077 2e-05 0.00015 22.36291 -29.08834 -6.92251 47.77813 2.98734 -1.77747 -10.91689 -2.14284 -0.45958 71.48951 -101.67403 64.1703 6.1234 93.0438 10.93028 -0.81903 45.04394 101.52757 -64.16944 7.54034 -91.02636 9.04398 0.91971 44.78911 -5.39588 -3.13396 -22.0271 -7.10569 -3.58224 -2.53816 48.96235 8.88189 1.45078 -27.17556 -7.0379 2.94667 2.17259
0.00082 3e-05 0.00016 22.37789 -29.11138 -6.92676 47.79638 2.98152 -1.75318 -10.92762 -2.15384 -0.45994 71.46502 -101.69609 64.17059 6.13035 93.07218 10.93397 -0.82251 45.11329 101.49986 -64.16877 7.52708 -91.03208 9.04035 0.9108 44.80435 -5.38833 -3.11472 -22.02303 -7.10615 -3.58693 -2.54096 48.98729 8.89475 1.49125 -27.174 -7.03593 2.9251 2.1668
0.00087 4e-05 0.00018 22.39235 -29.12879 -6.93089 47.80836 2.97639 -1.7296 -10.9426 -2.16442 -0.46029 71.40742 -101.71261 64.17081 6.13946 93.09434 10.93758 -0.83048 45.22818 101.47055 -64.16836 7.51319 -91.03702 9.04829 0.89906 44.81462 -5.38212 -3.10369 -22.02071 -7.10643 -3.59121 -2.54331 49.00648 8.90474 1.5177 -27.1732 -7.03432 2.90844 2.1622
0.00091 4e-05 0.0002 22.405 -29.12894 -6.93478 47.80082 2.97334 -1.70913 -10.96832 -2.17359 -0.46061 71.26625 -101.71118 64.17085 6.15244 93.09831 10.9412 -0.85055 45.47005 101.43869 -64.16877 7.49786 -91.03951 9.09049 0.87929 44.80967 -5.37923 -3.11377 -22.02359 -7.10629 -3.59437 -2.54451 49.00804 8.90881 1.51281 -27.1748 -7.0336 2.90504 2.16046
0.00096 3e-05 0.00022 22.41731 -29.12338 -6.93859 47.78689 2.97089 -1.6896 -10.99819 -2.18224 -0.46091 71.09603 -101.70378 64.17083 6.16727 93.09589 10.94428 -0.8748 45.75821 101.40517 -64.16944 7.48214 -91.04164 9.14378 0.85653 44.79958 -5.37763 -3.13208 -22.02826 -7.10594 -3.59706 -2.54524 49.00375 8.90959 1.49193 -27.17716 -7.03325 2.90673 2.16004
0.001 3e-05 0.00025 22.43029 -29.1208 -6.94252 47.77634 2.96791 -1.66989 -11.02616 -2.19103 -0.46122 70.94533 -101.69894 64.17083 6.18088 93.09658 10.94671 -0.89628 46.0252 101.37172 -64.16996 7.46652 -91.04471 9.1911 0.8348 44.79198 -5.37552 -3.14744 -22.03206 -7.10562 -3.59984 -2.54612 49.00253 8.91038 1.47209 -27.1791 -7.03278 2.90649 2.15941
0.00104 3e-05 0.00027 22.4411 -29.11675 -6.9461 47.764 2.96602 -1.64907 -11.05432 -2.20033 -0.46153 70.76534 -101.69499 64.17086 6.19605 93.0967 10.95318 -0.92131 46.29184 101.34095 -64.17062 7.45053 -91.04415 9.24335 0.81443 44.78392 -5.37325 -3.16007 -22.03605 -7.10559 -3.60314 -2.54726 48.99977 8.91733 1.47822 -27.18132 -7.03209 2.90459 2.15716
0.00109 3e-05 0.0003 22.45628 -29.11434 -6.95038 47.75381 2.96205 -1.63067 -11.08303 -2.20839 -0.46183 70.64056 -101.68782 64.17082 6.20878 93.09624 10.95094 -0.94025 46.57111 101.30434 -64.17104 7.43605 -91.05141 9.28665 0.79064 44.77555 -5.37146 -3.17966 -22.04007 -7.10491 -3.60528 -2.54779 48.99873 8.91084 1.42709 -27.18316 -7.03196 2.90739 2.15855
0.00117 3e-05 0.00034 22.48444 -29.11785 -6.95672 47.75104 2.95163 -1.62047 -11.11208 -2.2132 -0.46214 70.67457 -101.67139 64.1706 6.21093 93.09624 10.92559 -0.93799 46.86761 101.25121 -64.17066 7.41934 -91.07918 9.31343 0.757 44.76736 -5.37171 -3.22221 -22.0438 -7.1023 -3.6038 -2.54636 49.00407 8.86657 1.21565 -27.18371 -7.03331 2.92189 2.16997
0.00127 3e-05 0.00039 22.51685 -29.12317 -6.96374 47.75066 2.93919 -1.61237 -11.14159 -2.21675 -0.46245 70.7658 -101.65226 64.17032 6.21183 93.09492 10.89121 -0.93004 47.17694 101.19246 -64.17003 7.40567 -91.11592 9.32854 0.7204 44.75906 -5.37222 -3.27053 -22.04751 -7.09906 -3.60126 -2.54441 49.01126 8.80919 0.94834 -27.18386 -7.0352 2.94094 2.18495
0.00137 3e-05 0.00044 22.54678 -29.12762 -6.97038 47.7492 2.92805 -1.60217 -11.17091 -2.22085 -0.46276 70.83147 -101.63544 64.17009 6.21463 93.09495 10.86056 -0.92688 47.4839 101.13675 -64.16955 7.39448 -91.14825 9.34213 0.6857 44.75094 -5.37188 -3.31224 -22.0512 -7.09624 -3.59957 -2.54298 49.01745 8.75875 0.71043 -27.18425 -7.03684 2.95795 2.19814
0.00146 3e-05 0.00049 22.57906 -29.1321 -6.97737 47.74746 2.91536 -1.5968 -11.20011 -2.22504 -0.46307 70.89351 -101.61361 64.16978 6.20911 93.09508 10.83192 -0.91464 47.77572 101.07873 -64.16892 7.36575 -91.17846 9.38589 0.64785 44.74213 -5.37456 -3.37051 -22.05505 -7.09288 -3.59636 -2.5404 49.02417 8.70394 0.45459 -27.18444 -7.03855 2.97511 2.21216
